<svg width="65" height="64" viewBox="0 0 65 64" fill="none" xmlns="http://www.w3.org/2000/svg">
<rect x="4.5" y="4" width="56" height="56" rx="28" fill="#5594F0"/>
<rect x="4.5" y="4" width="56" height="56" rx="28" stroke="#2A79EC" stroke-width="8"/>
<path d="M40 27.4999L38.51 28.9899L35.51 25.9899L37 24.4999C37.42 24.0799 37.96 23.8799 38.5 23.8799C39.04 23.8799 39.58 24.0799 40 24.4999C40.83 25.3299 40.83 26.6699 40 27.4999Z" fill="white"/>
<path d="M37.8099 29.7002L26.9999 40.5002C26.1699 41.3302 24.8299 41.3302 23.9999 40.5002C23.1699 39.6702 23.1699 38.3302 23.9999 37.5002L34.8099 26.7002L37.8099 29.7002Z" fill="white"/>
<path d="M30.45 23.4995L30.86 22.1095C30.9 21.9795 30.86 21.8395 30.77 21.7395C30.68 21.6395 30.52 21.5995 30.39 21.6395L29 22.0495L27.61 21.6395C27.48 21.5995 27.34 21.6395 27.24 21.7295C27.14 21.8295 27.11 21.9695 27.15 22.0995L27.55 23.4995L27.14 24.8895C27.1 25.0195 27.14 25.1595 27.23 25.2595C27.33 25.3595 27.47 25.3895 27.6 25.3495L29 24.9495L30.39 25.3595C30.43 25.3695 30.46 25.3795 30.5 25.3795C30.6 25.3795 30.69 25.3395 30.77 25.2695C30.87 25.1695 30.9 25.0295 30.86 24.8995L30.45 23.4995Z" fill="white"/>
<path d="M26.45 29.4995L26.86 28.1095C26.9 27.9795 26.86 27.8395 26.77 27.7395C26.67 27.6395 26.53 27.6095 26.4 27.6495L25 28.0495L23.61 27.6395C23.48 27.5995 23.34 27.6395 23.24 27.7295C23.14 27.8295 23.11 27.9695 23.15 28.0995L23.55 29.4995L23.14 30.8895C23.1 31.0195 23.14 31.1595 23.23 31.2595C23.33 31.3595 23.47 31.3895 23.6 31.3495L24.99 30.9395L26.38 31.3495C26.41 31.3595 26.45 31.3595 26.49 31.3595C26.59 31.3595 26.68 31.3195 26.76 31.2495C26.86 31.1495 26.89 31.0095 26.85 30.8795L26.45 29.4995Z" fill="white"/>
<path d="M41.45 34.5L41.86 33.11C41.9 32.98 41.86 32.84 41.77 32.74C41.67 32.64 41.53 32.61 41.4 32.65L40.01 33.06L38.62 32.65C38.49 32.61 38.35 32.65 38.25 32.74C38.15 32.84 38.12 32.98 38.16 33.11L38.57 34.5L38.16 35.89C38.12 36.02 38.16 36.16 38.25 36.26C38.35 36.36 38.49 36.39 38.62 36.35L40.01 35.94L41.4 36.35C41.43 36.36 41.47 36.36 41.51 36.36C41.61 36.36 41.7 36.32 41.78 36.25C41.88 36.15 41.91 36.01 41.87 35.88L41.45 34.5Z" fill="white"/>
</svg>
