<svg width="65" height="64" viewBox="0 0 65 64" fill="none" xmlns="http://www.w3.org/2000/svg">
<rect x="4.5" y="4" width="56" height="56" rx="28" fill="#5594F0"/>
<rect x="4.5" y="4" width="56" height="56" rx="28" stroke="#2A79EC" stroke-width="8"/>
<path d="M38.3102 25.49V26.23L34.7702 24.18C33.4302 23.41 31.5602 23.41 30.2302 24.18L26.6902 26.24V25.49C26.6902 23.24 27.9202 22 30.1702 22H34.8302C37.0802 22 38.3102 23.24 38.3102 25.49Z" fill="white"/>
<path d="M38.34 27.9702L38.2 27.9002L36.84 27.1202L34.02 25.4902C33.16 24.9902 31.84 24.9902 30.98 25.4902L28.16 27.1102L26.8 27.9102L26.62 28.0002C24.87 29.1802 24.75 29.4002 24.75 31.2902V35.8102C24.75 37.7002 24.87 37.9202 26.66 39.1302L30.98 41.6202C31.41 41.8802 31.95 41.9902 32.5 41.9902C33.04 41.9902 33.59 41.8702 34.02 41.6202L38.38 39.1002C40.14 37.9202 40.25 37.7102 40.25 35.8102V31.2902C40.25 29.4002 40.13 29.1802 38.34 27.9702ZM35.29 33.5002L34.68 34.2502C34.58 34.3602 34.51 34.5702 34.52 34.7202L34.58 35.6802C34.62 36.2702 34.2 36.5702 33.65 36.3602L32.76 36.0002C32.62 35.9502 32.39 35.9502 32.25 36.0002L31.36 36.3502C30.81 36.5702 30.39 36.2602 30.43 35.6702L30.49 34.7102C30.5 34.5602 30.43 34.3502 30.33 34.2402L29.71 33.5002C29.33 33.0502 29.5 32.5502 30.07 32.4002L31 32.1602C31.15 32.1202 31.32 31.9802 31.4 31.8602L31.92 31.0602C32.24 30.5602 32.75 30.5602 33.08 31.0602L33.6 31.8602C33.68 31.9902 33.86 32.1202 34 32.1602L34.93 32.4002C35.5 32.5502 35.67 33.0502 35.29 33.5002Z" fill="white"/>
</svg>
