<svg width="36" height="36" viewBox="0 0 36 36" fill="none" xmlns="http://www.w3.org/2000/svg">
<rect width="36" height="36" rx="18" fill="#F04438"/>
<path d="M23.5583 9.66663H21.975C20.1583 9.66663 19.2 10.625 19.2 12.4416V14.025C19.2 15.8416 20.1583 16.8 21.975 16.8H23.5583C25.375 16.8 26.3333 15.8416 26.3333 14.025V12.4416C26.3333 10.625 25.375 9.66663 23.5583 9.66663Z" fill="white"/>
<path d="M14.0334 19.1917H12.4501C10.6251 19.1917 9.66675 20.15 9.66675 21.9667V23.55C9.66675 25.375 10.6251 26.3333 12.4417 26.3333H14.0251C15.8417 26.3333 16.8001 25.375 16.8001 23.5583V21.975C16.8084 20.15 15.8501 19.1917 14.0334 19.1917Z" fill="white"/>
<path d="M13.2417 16.8166C15.2162 16.8166 16.8167 15.216 16.8167 13.2416C16.8167 11.2672 15.2162 9.66663 13.2417 9.66663C11.2673 9.66663 9.66675 11.2672 9.66675 13.2416C9.66675 15.216 11.2673 16.8166 13.2417 16.8166Z" fill="white"/>
<path d="M22.7583 26.3334C24.7328 26.3334 26.3334 24.7328 26.3334 22.7583C26.3334 20.7839 24.7328 19.1833 22.7583 19.1833C20.7839 19.1833 19.1833 20.7839 19.1833 22.7583C19.1833 24.7328 20.7839 26.3334 22.7583 26.3334Z" fill="white"/>
</svg>
