<svg width="36" height="36" viewBox="0 0 36 36" fill="none" xmlns="http://www.w3.org/2000/svg">
<rect width="36" height="36" rx="18" fill="#12B76A"/>
<path d="M21.4917 9.66663H14.5084C11.4751 9.66663 9.66675 11.475 9.66675 14.5083V21.4833C9.66675 24.525 11.4751 26.3333 14.5084 26.3333H21.4834C24.5167 26.3333 26.3251 24.525 26.3251 21.4916V14.5083C26.3334 11.475 24.5251 9.66663 21.4917 9.66663ZM22.3834 16.3L20.4584 18.7833C20.2167 19.0916 19.8751 19.2916 19.4834 19.3333C19.0917 19.3833 18.7084 19.275 18.4001 19.0333L16.8751 17.8333C16.8167 17.7833 16.7501 17.7833 16.7167 17.7916C16.6834 17.7916 16.6251 17.8083 16.5751 17.875L14.5917 20.45C14.4667 20.6083 14.2834 20.6916 14.1001 20.6916C13.9667 20.6916 13.8334 20.65 13.7167 20.5583C13.4417 20.35 13.3917 19.9583 13.6001 19.6833L15.5834 17.1083C15.8251 16.8 16.1667 16.6 16.5584 16.55C16.9417 16.5 17.3334 16.6083 17.6417 16.85L19.1667 18.05C19.2251 18.1 19.2834 18.1 19.3251 18.0916C19.3584 18.0916 19.4167 18.075 19.4667 18.0083L21.3917 15.525C21.6001 15.25 22.0001 15.2 22.2667 15.4166C22.5417 15.6416 22.5917 16.0333 22.3834 16.3Z" fill="white"/>
</svg>
