<svg width="36" height="36" viewBox="0 0 36 36" fill="none" xmlns="http://www.w3.org/2000/svg">
<rect width="36" height="36" rx="18" fill="#F79009"/>
<path d="M12.1666 20.5C10.3249 20.5 8.83325 21.9917 8.83325 23.8333C8.83325 24.4583 9.00825 25.05 9.31659 25.55C9.89159 26.5167 10.9499 27.1667 12.1666 27.1667C13.3833 27.1667 14.4416 26.5167 15.0166 25.55C15.3249 25.05 15.4999 24.4583 15.4999 23.8333C15.4999 21.9917 14.0083 20.5 12.1666 20.5ZM13.4083 24.4417H12.7916V25.0917C12.7916 25.4333 12.5083 25.7167 12.1666 25.7167C11.8249 25.7167 11.5416 25.4333 11.5416 25.0917V24.4417H10.9249C10.5833 24.4417 10.2999 24.1583 10.2999 23.8167C10.2999 23.475 10.5833 23.1917 10.9249 23.1917H11.5416V22.6C11.5416 22.2583 11.8249 21.975 12.1666 21.975C12.5083 21.975 12.7916 22.2583 12.7916 22.6V23.1917H13.4083C13.7499 23.1917 14.0333 23.475 14.0333 23.8167C14.0333 24.1583 13.7583 24.4417 13.4083 24.4417Z" fill="white"/>
<path d="M25.9167 18.4166H23.8334C22.9167 18.4166 22.1667 19.1666 22.1667 20.0833C22.1667 21 22.9167 21.75 23.8334 21.75H25.9167C26.1501 21.75 26.3334 21.5666 26.3334 21.3333V18.8333C26.3334 18.6 26.1501 18.4166 25.9167 18.4166Z" fill="white"/>
<path d="M21.775 12.5C22.025 12.7417 21.8167 13.1167 21.4667 13.1167L14.5667 13.1084C14.1667 13.1084 13.9667 12.625 14.25 12.3417L15.7083 10.875C16.9417 9.65005 18.9333 9.65005 20.1667 10.875L21.7417 12.4667C21.75 12.475 21.7667 12.4917 21.775 12.5Z" fill="white"/>
<path d="M26.225 23.55C25.7166 25.2667 24.25 26.3334 22.25 26.3334H16.8333C16.5083 26.3334 16.3 25.975 16.4333 25.675C16.6833 25.0917 16.8416 24.4334 16.8416 23.8334C16.8416 21.3084 14.7833 19.25 12.2583 19.25C11.625 19.25 11.0083 19.3834 10.4416 19.6334C10.1333 19.7667 9.7583 19.5584 9.7583 19.225V18C9.7583 15.7334 11.125 14.15 13.25 13.8834C13.4583 13.85 13.6833 13.8334 13.9166 13.8334H22.25C22.4666 13.8334 22.675 13.8417 22.875 13.875C24.5583 14.0667 25.775 15.0917 26.225 16.6167C26.3083 16.8917 26.1083 17.1667 25.825 17.1667H23.9166C22.1083 17.1667 20.675 18.8167 21.0666 20.6917C21.3416 22.0584 22.6083 23 24 23H25.825C26.1166 23 26.3083 23.2834 26.225 23.55Z" fill="white"/>
</svg>
