<svg width="25" height="24" viewBox="0 0 25 24" fill="none" xmlns="http://www.w3.org/2000/svg">
<path d="M22.5 5.90716C21.7504 6.23454 20.9565 6.4492 20.144 6.54416C20.9968 6.0434 21.638 5.24927 21.948 4.31016C21.14 4.78049 20.2587 5.11177 19.341 5.29016C18.9545 4.88537 18.4897 4.56355 17.9748 4.34434C17.4598 4.12513 16.9056 4.01313 16.346 4.01516C14.08 4.01516 12.243 5.82516 12.243 8.05516C12.243 8.37116 12.279 8.68016 12.349 8.97516C10.7236 8.89786 9.13212 8.48257 7.67617 7.7558C6.22022 7.02903 4.93176 6.00674 3.893 4.75416C3.52883 5.36857 3.33742 6.06994 3.339 6.78416C3.3397 7.45213 3.50683 8.10939 3.82529 8.69656C4.14375 9.28372 4.6035 9.78228 5.163 10.1472C4.51248 10.1262 3.87602 9.95249 3.305 9.64016V9.69016C3.305 11.6482 4.72 13.2812 6.595 13.6532C6.24261 13.7467 5.87958 13.7941 5.515 13.7942C5.25 13.7942 4.993 13.7692 4.742 13.7192C5.01008 14.5271 5.52311 15.2315 6.20982 15.7345C6.89653 16.2375 7.72284 16.5142 8.574 16.5262C7.11407 17.6507 5.32182 18.2582 3.479 18.2532C3.147 18.2532 2.821 18.2332 2.5 18.1972C4.38125 19.3879 6.56259 20.0184 8.789 20.0152C16.336 20.0152 20.462 13.8582 20.462 8.51916L20.448 7.99616C21.2529 7.42983 21.9481 6.72201 22.5 5.90716Z" fill="white"/>
</svg>
